<svg width="668" height="229" viewBox="0 0 668 229" fill="none" xmlns="http://www.w3.org/2000/svg">
<path d="M234 0V229M87.5429 157.224V116.209M87.5429 116.209V112.791C87.5429 109.016 90.5234 105.955 94.2 105.955H107.514C111.191 105.955 114.171 109.016 114.171 112.791V116.209M87.5429 116.209H114.171M114.171 116.209V157.224M54.2571 133.299H57.5857C61.2624 133.299 64.2429 130.238 64.2429 126.463V119.627M54.2571 133.299H50.9286C47.2519 133.299 44.2714 130.238 44.2714 126.463V119.627M54.2571 133.299V119.627M54.2571 105.955H50.9286C47.2519 105.955 44.2714 109.016 44.2714 112.791V119.627M54.2571 105.955H57.5857C61.2624 105.955 64.2429 109.016 64.2429 112.791V119.627M54.2571 105.955V119.627M54.2571 119.627H44.2714M54.2571 119.627H64.2429M144.129 105.955H147.457C151.134 105.955 154.114 109.016 154.114 112.791V119.627M144.129 105.955H140.8C137.123 105.955 134.143 109.016 134.143 112.791V119.627M144.129 105.955V119.627M144.129 133.299H140.8C137.123 133.299 134.143 130.238 134.143 126.463V119.627M144.129 133.299H147.457C151.134 133.299 154.114 130.238 154.114 126.463V119.627M144.129 133.299V119.627M144.129 119.627H134.143M144.129 119.627H154.114M60.8497 63.545L60.9143 41.0149M60.9143 41.0149V37.597C60.9143 33.8217 63.8948 30.7612 67.5714 30.7612C71.2481 30.7612 74.2286 33.8217 74.2286 37.597V41.0149M60.9143 41.0149H74.2286M74.2286 41.0149L74.0777 49.3151M124.157 41.0149V37.597C124.157 33.8217 127.138 30.7612 130.814 30.7612C134.491 30.7612 137.471 33.8217 137.471 37.597V41.0149M124.157 41.0149V47.1173M124.157 41.0149H137.471M137.471 61.5224V41.0149M160.771 87.8891L105.665 25.9148C103.065 22.9904 98.5963 22.9395 95.9335 25.804L32.7988 93.7204C31.6167 94.992 30.9572 96.6824 30.9572 98.4403V157.224M160.771 87.8891L170.757 99.1194M160.771 87.8891V157.224M7.65715 157.224H30.9572M30.9572 157.224H72.3135M160.771 157.224H194.057M160.771 157.224H127.486M70.9 61.5224H87.7806M87.7806 61.5224L82.1883 68.8309M87.7806 61.5224L95.8463 50.9815C98.4397 47.5921 103.404 47.4834 106.135 50.7561L127.486 76.3333M64.2429 68.3582L82.1883 68.8309M82.1883 68.8309L77.3194 75.194M57.5857 75.194H77.3194M77.3194 75.194L72.3135 81.7361M50.9286 85.4478L69.2757 85.7062M69.2757 85.7062L64.2429 92.2836M69.2757 85.7062L72.3135 81.7361M72.3135 81.7361V157.224M72.3135 157.224H127.486M127.486 157.224V76.3333M127.486 76.3333L140.8 92.2836M170.757 157.224V88.8657M170.757 123.045C170.757 123.045 178.793 125.047 180.743 123.045C182.693 121.043 182.291 121.789 184.071 119.627C186.452 116.736 188.262 117.053 190.729 116.209C193.195 115.365 195.741 112.75 197.386 109.373C198.713 106.647 197.897 99.411 197.533 96.7245C197.441 96.0436 197.233 95.3888 196.934 94.774L194.269 89.3002C194.128 89.0109 194.008 88.7124 193.905 88.4067C193.014 85.7568 191.234 81.0748 190.729 78.6119C189.763 73.9026 187.321 71.0278 184.071 68.3582C180.822 65.6887 174.086 64.9403 174.086 64.9403H165.672C164.638 64.9403 163.619 65.1874 162.694 65.662L158.409 67.8621C157.769 68.1907 157.185 68.6231 156.679 69.1426L150.786 75.194M30.9572 126.463C30.9572 126.463 20.3235 128.465 18.3736 126.463C16.4238 124.461 16.8253 125.207 15.0451 123.045C12.6648 120.154 10.8543 120.471 8.38792 119.627C5.92155 118.783 3.37502 116.168 1.73077 112.791C0.403262 110.065 1.21934 102.829 1.583 100.142C1.67516 99.4616 1.88303 98.8067 2.18239 98.1919L4.84776 92.7181C4.98864 92.4288 5.10843 92.1303 5.21123 91.8246C6.10227 89.1747 7.88298 84.4927 8.38792 82.0298C9.35345 77.3205 11.7953 74.4457 15.0451 71.7761C18.2948 69.1066 25.0308 68.3582 25.0308 68.3582H33.445C34.4784 68.3582 35.4977 68.6053 36.4221 69.0799L40.7074 71.28C41.3474 71.6086 41.9316 72.041 42.4375 72.5605L48.3308 78.6119M30.9572 105.955C30.9572 105.955 29.2929 102.537 24.3 102.537C21.9566 102.537 19.3071 99.1194 19.3071 99.1194M37.6143 157.224V116.209M37.6143 116.209V88.8657M37.6143 116.209H30.9572" stroke="white" stroke-width="2"/>
<path d="M297.318 13.4317H306.068V65.7169C306.068 70.3835 305.221 74.3478 303.528 77.6096C301.834 80.8715 299.447 83.3477 296.366 85.0381C293.284 86.7286 289.65 87.5738 285.464 87.5738C281.512 87.5738 277.996 86.8477 274.914 85.3953C271.833 83.9191 269.41 81.8239 267.646 79.1096C265.882 76.3954 265 73.1692 265 69.4312H273.609C273.609 71.5026 274.115 73.3121 275.126 74.8597C276.161 76.3835 277.572 77.5739 279.36 78.4311C281.147 79.2882 283.182 79.7168 285.464 79.7168C287.98 79.7168 290.121 79.1811 291.885 78.1096C293.649 77.0382 294.99 75.4668 295.907 73.3954C296.848 71.3002 297.318 68.7407 297.318 65.7169V13.4317Z" fill="white"/>
<path d="M345.196 87.7167C339.974 87.7167 335.47 86.55 331.683 84.2167C327.92 81.8596 325.015 78.5739 322.968 74.3597C320.946 70.1216 319.934 65.1931 319.934 59.5741C319.934 53.9551 320.946 49.0028 322.968 44.7171C325.015 40.4076 327.861 37.0505 331.507 34.6458C335.176 32.2172 339.457 31.003 344.349 31.003C347.172 31.003 349.959 31.4792 352.711 32.4315C355.463 33.3839 357.968 34.9315 360.226 37.0743C362.484 39.1934 364.284 42.0029 365.624 45.5028C366.965 49.0028 367.635 53.3123 367.635 58.4313V62.0027H325.861V54.717H359.168C359.168 51.6218 358.556 48.8599 357.333 46.4314C356.133 44.0028 354.416 42.0862 352.182 40.6814C349.971 39.2767 347.36 38.5743 344.349 38.5743C341.033 38.5743 338.163 39.4076 335.74 41.0743C333.341 42.7171 331.495 44.86 330.201 47.5028C328.907 50.1456 328.261 52.9789 328.261 56.0027V60.8598C328.261 65.0026 328.966 68.5145 330.378 71.3954C331.812 74.2525 333.8 76.4311 336.34 77.9311C338.881 79.4073 341.832 80.1453 345.196 80.1453C347.384 80.1453 349.359 79.8358 351.123 79.2168C352.911 78.5739 354.452 77.6216 355.745 76.3597C357.039 75.074 358.039 73.4787 358.744 71.574L366.789 73.8597C365.942 76.6216 364.519 79.0501 362.519 81.1453C360.52 83.2167 358.05 84.8358 355.11 86.0024C352.17 87.1453 348.865 87.7167 345.196 87.7167Z" fill="white"/>
<path d="M388.628 53.5742V86.5739H380.302V31.7172H388.346V40.2886H389.052C390.322 37.5029 392.25 35.2648 394.838 33.5744C397.425 31.8601 400.765 31.003 404.858 31.003C408.527 31.003 411.738 31.7649 414.49 33.2887C417.242 34.7886 419.382 37.0743 420.911 40.1457C422.44 43.1933 423.205 47.0504 423.205 51.7171V86.5739H414.878V52.2885C414.878 47.979 413.772 44.6219 411.561 42.2171C409.35 39.7886 406.316 38.5743 402.459 38.5743C399.801 38.5743 397.425 39.1576 395.332 40.3243C393.262 41.491 391.627 43.1933 390.428 45.4314C389.228 47.6695 388.628 50.3837 388.628 53.5742Z" fill="white"/>
<path d="M438.42 86.5739V31.7172H446.746V86.5739H438.42ZM442.654 22.5745C441.031 22.5745 439.631 22.015 438.455 20.8959C437.303 19.7769 436.726 18.4317 436.726 16.8603C436.726 15.2888 437.303 13.9436 438.455 12.8246C439.631 11.7055 441.031 11.146 442.654 11.146C444.277 11.146 445.665 11.7055 446.817 12.8246C447.993 13.9436 448.581 15.2888 448.581 16.8603C448.581 18.4317 447.993 19.7769 446.817 20.8959C445.665 22.015 444.277 22.5745 442.654 22.5745Z" fill="white"/>
<path d="M500.384 44.0028L492.904 46.1457C492.434 44.8838 491.74 43.6576 490.823 42.4671C489.929 41.2529 488.706 40.2529 487.153 39.4672C485.601 38.6815 483.613 38.2886 481.191 38.2886C477.874 38.2886 475.11 39.0624 472.899 40.61C470.712 42.1338 469.618 44.0743 469.618 46.4314C469.618 48.5266 470.371 50.1814 471.876 51.3956C473.381 52.6099 475.734 53.6218 478.932 54.4313L486.977 56.4313C491.822 57.6218 495.433 59.4432 497.808 61.8955C500.184 64.3241 501.372 67.455 501.372 71.2883C501.372 74.4311 500.478 77.2406 498.69 79.7168C496.926 82.1929 494.457 84.1453 491.281 85.5739C488.106 87.0024 484.413 87.7167 480.203 87.7167C474.675 87.7167 470.1 86.5024 466.478 84.0739C462.856 81.6453 460.562 78.0977 459.598 73.4311L467.501 71.4311C468.254 74.3835 469.677 76.5978 471.77 78.0739C473.887 79.5501 476.651 80.2882 480.062 80.2882C483.943 80.2882 487.024 79.4549 489.305 77.7882C491.611 76.0978 492.763 74.074 492.763 71.7169C492.763 69.8121 492.104 68.2169 490.787 66.9312C489.47 65.6217 487.447 64.6455 484.719 64.0026L475.687 61.8598C470.724 60.6693 467.078 58.8241 464.749 56.3241C462.444 53.8004 461.291 50.6456 461.291 46.86C461.291 43.7648 462.15 41.0267 463.867 38.6458C465.608 36.2648 467.972 34.3958 470.959 33.0387C473.969 31.6815 477.38 31.003 481.191 31.003C486.553 31.003 490.764 32.1934 493.822 34.5744C496.903 36.9553 499.09 40.0981 500.384 44.0028Z" fill="white"/>
<path d="M552.293 44.0028L544.813 46.1457C544.342 44.8838 543.649 43.6576 542.731 42.4671C541.837 41.2529 540.614 40.2529 539.062 39.4672C537.509 38.6815 535.522 38.2886 533.099 38.2886C529.783 38.2886 527.019 39.0624 524.808 40.61C522.62 42.1338 521.527 44.0743 521.527 46.4314C521.527 48.5266 522.279 50.1814 523.785 51.3956C525.29 52.6099 527.642 53.6218 530.841 54.4313L538.885 56.4313C543.731 57.6218 547.341 59.4432 549.717 61.8955C552.093 64.3241 553.281 67.455 553.281 71.2883C553.281 74.4311 552.387 77.2406 550.599 79.7168C548.835 82.1929 546.365 84.1453 543.19 85.5739C540.014 87.0024 536.322 87.7167 532.111 87.7167C526.584 87.7167 522.009 86.5024 518.387 84.0739C514.764 81.6453 512.471 78.0977 511.507 73.4311L519.41 71.4311C520.162 74.3835 521.586 76.5978 523.679 78.0739C525.796 79.5501 528.56 80.2882 531.97 80.2882C535.851 80.2882 538.933 79.4549 541.214 77.7882C543.519 76.0978 544.672 74.074 544.672 71.7169C544.672 69.8121 544.013 68.2169 542.696 66.9312C541.379 65.6217 539.356 64.6455 536.627 64.0026L527.595 61.8598C522.632 60.6693 518.986 58.8241 516.658 56.3241C514.353 53.8004 513.2 50.6456 513.2 46.86C513.2 43.7648 514.059 41.0267 515.776 38.6458C517.516 36.2648 519.88 34.3958 522.867 33.0387C525.878 31.6815 529.289 31.003 533.099 31.003C538.462 31.003 542.672 32.1934 545.73 34.5744C548.811 36.9553 550.999 40.0981 552.293 44.0028Z" fill="white"/>
<path d="M587.83 87.7167C582.938 87.7167 578.645 86.5381 574.952 84.181C571.283 81.8239 568.414 78.5263 566.344 74.2883C564.297 70.0502 563.274 65.0979 563.274 59.4313C563.274 53.717 564.297 48.729 566.344 44.4671C568.414 40.2053 571.283 36.8958 574.952 34.5387C578.645 32.1815 582.938 31.003 587.83 31.003C592.723 31.003 597.004 32.1815 600.673 34.5387C604.366 36.8958 607.236 40.2053 609.282 44.4671C611.352 48.729 612.387 53.717 612.387 59.4313C612.387 65.0979 611.352 70.0502 609.282 74.2883C607.236 78.5263 604.366 81.8239 600.673 84.181C597.004 86.5381 592.723 87.7167 587.83 87.7167ZM587.83 80.1453C591.547 80.1453 594.605 79.1811 597.004 77.2525C599.403 75.324 601.179 72.7883 602.331 69.6454C603.484 66.5026 604.06 63.0979 604.06 59.4313C604.06 55.7646 603.484 52.348 602.331 49.1814C601.179 46.0147 599.403 43.4552 597.004 41.5029C594.605 39.5505 591.547 38.5743 587.83 38.5743C584.114 38.5743 581.056 39.5505 578.657 41.5029C576.258 43.4552 574.482 46.0147 573.33 49.1814C572.177 52.348 571.601 55.7646 571.601 59.4313C571.601 63.0979 572.177 66.5026 573.33 69.6454C574.482 72.7883 576.258 75.324 578.657 77.2525C581.056 79.1811 584.114 80.1453 587.83 80.1453Z" fill="white"/>
<path d="M633.424 53.5742V86.5739H625.097V31.7172H633.141V40.2886H633.847C635.117 37.5029 637.046 35.2648 639.633 33.5744C642.221 31.8601 645.561 31.003 649.653 31.003C653.323 31.003 656.533 31.7649 659.285 33.2887C662.037 34.7886 664.178 37.0743 665.707 40.1457C667.236 43.1933 668 47.0504 668 51.7171V86.5739H659.673V52.2885C659.673 47.979 658.568 44.6219 656.357 42.2171C654.146 39.7886 651.112 38.5743 647.254 38.5743C644.596 38.5743 642.221 39.1576 640.127 40.3243C638.057 41.491 636.423 43.1933 635.223 45.4314C634.023 47.6695 633.424 50.3837 633.424 53.5742Z" fill="white"/>
<path d="M269.699 173.735V100.593H278.449V165.878H312.038V173.735H269.699Z" fill="white"/>
<path d="M358.61 151.307V118.878H366.937V173.735H358.61V164.449H358.045C356.775 167.235 354.799 169.604 352.118 171.556C349.437 173.485 346.05 174.449 341.957 174.449C338.57 174.449 335.559 173.699 332.925 172.199C330.29 170.675 328.22 168.39 326.715 165.342C325.21 162.271 324.457 158.402 324.457 153.735V118.878H332.784V153.164C332.784 157.164 333.889 160.354 336.1 162.735C338.335 165.116 341.181 166.306 344.638 166.306C346.708 166.306 348.813 165.771 350.954 164.699C353.118 163.628 354.929 161.985 356.387 159.771C357.869 157.556 358.61 154.735 358.61 151.307Z" fill="white"/>
<path d="M404.203 174.878C399.123 174.878 394.748 173.663 391.078 171.235C387.409 168.806 384.586 165.461 382.611 161.199C380.635 156.937 379.647 152.068 379.647 146.592C379.647 141.021 380.658 136.104 382.681 131.842C384.727 127.557 387.574 124.212 391.219 121.807C394.889 119.378 399.17 118.164 404.062 118.164C407.872 118.164 411.307 118.878 414.364 120.307C417.422 121.735 419.927 123.735 421.879 126.307C423.832 128.878 425.043 131.878 425.513 135.307H417.187C416.552 132.807 415.141 130.592 412.953 128.664C410.789 126.712 407.872 125.735 404.203 125.735C400.957 125.735 398.111 126.592 395.665 128.307C393.242 129.997 391.349 132.39 389.984 135.485C388.644 138.557 387.973 142.164 387.973 146.307C387.973 150.545 388.632 154.235 389.949 157.378C391.29 160.521 393.172 162.961 395.594 164.699C398.041 166.437 400.91 167.306 404.203 167.306C406.367 167.306 408.331 166.925 410.095 166.164C411.859 165.402 413.353 164.306 414.576 162.878C415.799 161.449 416.669 159.735 417.187 157.735H425.513C425.043 160.973 423.879 163.89 422.021 166.485C420.186 169.056 417.751 171.104 414.717 172.628C411.706 174.128 408.202 174.878 404.203 174.878Z" fill="white"/>
<path d="M445.448 153.735L445.307 143.307H447L470.71 118.878H481.012L455.75 144.735H455.045L445.448 153.735ZM437.686 173.735V100.593H446.012V173.735H437.686ZM472.121 173.735L450.952 146.592L456.879 140.735L482.706 173.735H472.121Z" fill="white"/>
<path d="M504.007 173.735L487.495 118.878H496.245L507.959 160.878H508.523L520.096 118.878H528.987L540.418 160.735H540.983L552.696 118.878H561.446L544.934 173.735H536.749L524.894 131.592H524.047L512.193 173.735H504.007Z" fill="white"/>
<path d="M606.607 151.307V118.878H614.934V173.735H606.607V164.449H606.043C604.773 167.235 602.797 169.604 600.115 171.556C597.434 173.485 594.047 174.449 589.954 174.449C586.567 174.449 583.556 173.699 580.922 172.199C578.288 170.675 576.218 168.39 574.712 165.342C573.207 162.271 572.454 158.402 572.454 153.735V118.878H580.781V153.164C580.781 157.164 581.886 160.354 584.097 162.735C586.332 165.116 589.178 166.306 592.636 166.306C594.705 166.306 596.811 165.771 598.951 164.699C601.115 163.628 602.926 161.985 604.384 159.771C605.866 157.556 606.607 154.735 606.607 151.307ZM583.603 109.736C582.122 109.736 580.804 109.164 579.652 108.021C578.523 106.855 577.958 105.521 577.958 104.021C577.958 102.378 578.523 101.021 579.652 99.9499C580.804 98.8547 582.122 98.3071 583.603 98.3071C585.226 98.3071 586.567 98.8547 587.626 99.9499C588.708 101.021 589.248 102.378 589.248 104.021C589.248 105.521 588.708 106.855 587.626 108.021C586.567 109.164 585.226 109.736 583.603 109.736ZM603.926 109.736C602.444 109.736 601.127 109.164 599.974 108.021C598.845 106.855 598.281 105.521 598.281 104.021C598.281 102.378 598.845 101.021 599.974 99.9499C601.127 98.8547 602.444 98.3071 603.926 98.3071C605.549 98.3071 606.889 98.8547 607.948 99.9499C609.03 101.021 609.571 102.378 609.571 104.021C609.571 105.521 609.03 106.855 607.948 108.021C606.889 109.164 605.549 109.736 603.926 109.736Z" fill="white"/>
</svg>
