<svg width="24" height="24" viewBox="0 0 85 70" fill="none" xmlns="http://www.w3.org/2000/svg">
<path d="M36.9021 65.2239V48.209M36.9021 48.209V46.791C36.9021 45.2249 38.1385 43.9552 39.6638 43.9552H45.1872C46.7124 43.9552 47.9488 45.2249 47.9488 46.791V48.209M36.9021 48.209H47.9488M47.9488 48.209V65.2239M23.0936 55.2985H24.4744C25.9997 55.2985 27.2361 54.0289 27.2361 52.4627V49.6269M23.0936 55.2985H21.7127C20.1875 55.2985 18.951 54.0289 18.951 52.4627V49.6269M23.0936 55.2985V49.6269M23.0936 43.9552H21.7127C20.1875 43.9552 18.951 45.2249 18.951 46.791V49.6269M23.0936 43.9552H24.4744C25.9997 43.9552 27.2361 45.2249 27.2361 46.791V49.6269M23.0936 43.9552V49.6269M23.0936 49.6269H18.951M23.0936 49.6269H27.2361M60.3765 43.9552H61.7573C63.2826 43.9552 64.519 45.2249 64.519 46.791V49.6269M60.3765 43.9552H58.9956C57.4704 43.9552 56.2339 45.2249 56.2339 46.791V49.6269M60.3765 43.9552V49.6269M60.3765 55.2985H58.9956C57.4704 55.2985 56.2339 54.0289 56.2339 52.4627V49.6269M60.3765 55.2985H61.7573C63.2826 55.2985 64.519 54.0289 64.519 52.4627V49.6269M60.3765 55.2985V49.6269M60.3765 49.6269H56.2339M60.3765 49.6269H64.519M25.8285 26.3615L25.8553 17.0149M25.8553 17.0149V15.597C25.8553 14.0308 27.0917 12.7612 28.617 12.7612C30.1422 12.7612 31.3787 14.0308 31.3787 15.597V17.0149M25.8553 17.0149H31.3787M31.3787 17.0149L31.3161 20.4582M52.0914 17.0149V15.597C52.0914 14.0308 53.3278 12.7612 54.8531 12.7612C56.3783 12.7612 57.6148 14.0308 57.6148 15.597V17.0149M52.0914 17.0149V19.5465M52.0914 17.0149H57.6148M57.6148 25.5224V17.0149M67.2807 36.4606L44.4201 10.7507C43.3413 9.53749 41.4876 9.51639 40.3829 10.7047L14.1916 38.8796C13.7013 39.4072 13.4276 40.1084 13.4276 40.8377V65.2239M67.2807 36.4606L71.4233 41.1194M67.2807 36.4606V65.2239M3.7617 65.2239H13.4276M13.4276 65.2239H30.5842M67.2807 65.2239H81.0892M67.2807 65.2239H53.4722M29.9978 25.5224H37.0007M37.0007 25.5224L34.6808 28.5543M37.0007 25.5224L40.3467 21.1495C41.4226 19.7435 43.4818 19.6984 44.6151 21.056L53.4722 31.6667M27.2361 28.3582L34.6808 28.5543M34.6808 28.5543L32.6609 31.194M24.4744 31.194H32.6609M32.6609 31.194L30.5842 33.908M21.7127 35.4478L29.324 35.555M29.324 35.555L27.2361 38.2836M29.324 35.555L30.5842 33.908M30.5842 33.908V65.2239M30.5842 65.2239H53.4722M53.4722 65.2239V31.6667M53.4722 31.6667L58.9956 38.2836M71.4233 65.2239V36.8657M71.4233 51.0448C71.4233 51.0448 74.7569 51.8754 75.5658 51.0448C76.3747 50.2142 76.2082 50.5239 76.9467 49.6269C77.9341 48.4275 78.6852 48.5592 79.7084 48.209C80.7315 47.8587 81.7879 46.774 82.4701 45.3731C83.0208 44.2421 82.6822 41.2404 82.5314 40.1259C82.4931 39.8434 82.4069 39.5718 82.2827 39.3167L81.177 37.0459C81.1185 36.9259 81.0688 36.8021 81.0262 36.6753C80.6566 35.5759 79.9178 33.6336 79.7084 32.6119C79.3078 30.6583 78.2948 29.4657 76.9467 28.3582C75.5985 27.2508 72.8041 26.9403 72.8041 26.9403H69.3135C68.8848 26.9403 68.4619 27.0428 68.0785 27.2397L66.3007 28.1524C66.0352 28.2887 65.7929 28.4681 65.583 28.6836L63.1382 31.194M13.4276 52.4627C13.4276 52.4627 9.01628 53.2933 8.2074 52.4627C7.39852 51.6321 7.56506 51.9418 6.82655 51.0448C5.83912 49.8454 5.08802 49.9771 4.06486 49.6269C3.04169 49.2767 1.98527 48.1919 1.30316 46.791C0.752445 45.6601 1.09099 42.6583 1.24185 41.5438C1.28009 41.2613 1.36632 40.9897 1.49051 40.7346L2.59623 38.4638C2.65468 38.3438 2.70437 38.22 2.74702 38.0932C3.11666 36.9939 3.85538 35.0516 4.06486 34.0299C4.46541 32.0762 5.47842 30.8836 6.82655 29.7761C8.17469 28.6687 10.9691 28.3582 10.9691 28.3582H14.4597C14.8884 28.3582 15.3113 28.4607 15.6948 28.6576L17.4725 29.5703C17.738 29.7066 17.9803 29.886 18.1902 30.1015L20.635 32.6119M13.4276 43.9552C13.4276 43.9552 12.7372 42.5373 10.6659 42.5373C9.69379 42.5373 8.59467 41.1194 8.59467 41.1194M16.1893 65.2239V48.209M16.1893 48.209V36.8657M16.1893 48.209H13.4276" stroke="white" stroke-width="2"/>
</svg>
