<svg width="278" height="95" viewBox="0 0 278 95" fill="none" xmlns="http://www.w3.org/2000/svg">
<path d="M97.6594 0V95M36.9021 65.2239V48.209M36.9021 48.209V46.791C36.9021 45.2249 38.1385 43.9552 39.6638 43.9552H45.1872C46.7124 43.9552 47.9488 45.2249 47.9488 46.791V48.209M36.9021 48.209H47.9488M47.9488 48.209V65.2239M23.0936 55.2985H24.4744C25.9997 55.2985 27.2361 54.0289 27.2361 52.4627V49.6269M23.0936 55.2985H21.7127C20.1875 55.2985 18.951 54.0289 18.951 52.4627V49.6269M23.0936 55.2985V49.6269M23.0936 43.9552H21.7127C20.1875 43.9552 18.951 45.2249 18.951 46.791V49.6269M23.0936 43.9552H24.4744C25.9997 43.9552 27.2361 45.2249 27.2361 46.791V49.6269M23.0936 43.9552V49.6269M23.0936 49.6269H18.951M23.0936 49.6269H27.2361M60.3765 43.9552H61.7573C63.2826 43.9552 64.519 45.2249 64.519 46.791V49.6269M60.3765 43.9552H58.9956C57.4704 43.9552 56.2339 45.2249 56.2339 46.791V49.6269M60.3765 43.9552V49.6269M60.3765 55.2985H58.9956C57.4704 55.2985 56.2339 54.0289 56.2339 52.4627V49.6269M60.3765 55.2985H61.7573C63.2826 55.2985 64.519 54.0289 64.519 52.4627V49.6269M60.3765 55.2985V49.6269M60.3765 49.6269H56.2339M60.3765 49.6269H64.519M25.8285 26.3615L25.8553 17.0149M25.8553 17.0149V15.597C25.8553 14.0308 27.0917 12.7612 28.617 12.7612C30.1422 12.7612 31.3787 14.0308 31.3787 15.597V17.0149M25.8553 17.0149H31.3787M31.3787 17.0149L31.3161 20.4582M52.0914 17.0149V15.597C52.0914 14.0308 53.3278 12.7612 54.8531 12.7612C56.3783 12.7612 57.6148 14.0308 57.6148 15.597V17.0149M52.0914 17.0149V19.5465M52.0914 17.0149H57.6148M57.6148 25.5224V17.0149M67.2807 36.4606L44.4201 10.7507C43.3413 9.53749 41.4876 9.51639 40.3829 10.7047L14.1916 38.8796C13.7013 39.4072 13.4276 40.1084 13.4276 40.8377V65.2239M67.2807 36.4606L71.4233 41.1194M67.2807 36.4606V65.2239M3.7617 65.2239H13.4276M13.4276 65.2239H30.5842M67.2807 65.2239H81.0892M67.2807 65.2239H53.4722M29.9978 25.5224H37.0007M37.0007 25.5224L34.6808 28.5543M37.0007 25.5224L40.3467 21.1495C41.4226 19.7435 43.4818 19.6984 44.6151 21.056L53.4722 31.6667M27.2361 28.3582L34.6808 28.5543M34.6808 28.5543L32.6609 31.194M24.4744 31.194H32.6609M32.6609 31.194L30.5842 33.908M21.7127 35.4478L29.324 35.555M29.324 35.555L27.2361 38.2836M29.324 35.555L30.5842 33.908M30.5842 33.908V65.2239M30.5842 65.2239H53.4722M53.4722 65.2239V31.6667M53.4722 31.6667L58.9956 38.2836M71.4233 65.2239V36.8657M71.4233 51.0448C71.4233 51.0448 74.7569 51.8754 75.5658 51.0448C76.3747 50.2142 76.2082 50.5239 76.9467 49.6269C77.9341 48.4275 78.6852 48.5592 79.7084 48.209C80.7315 47.8587 81.7879 46.774 82.4701 45.3731C83.0208 44.2421 82.6822 41.2404 82.5314 40.1259C82.4931 39.8434 82.4069 39.5718 82.2827 39.3167L81.177 37.0459C81.1185 36.9259 81.0688 36.8021 81.0262 36.6753C80.6566 35.5759 79.9178 33.6336 79.7084 32.6119C79.3078 30.6583 78.2948 29.4657 76.9467 28.3582C75.5985 27.2508 72.8041 26.9403 72.8041 26.9403H69.3135C68.8848 26.9403 68.4619 27.0428 68.0785 27.2397L66.3007 28.1524C66.0352 28.2887 65.7929 28.4681 65.583 28.6836L63.1382 31.194M13.4276 52.4627C13.4276 52.4627 9.01628 53.2933 8.2074 52.4627C7.39852 51.6321 7.56506 51.9418 6.82655 51.0448C5.83912 49.8454 5.08802 49.9771 4.06486 49.6269C3.04169 49.2767 1.98527 48.1919 1.30316 46.791C0.752445 45.6601 1.09099 42.6583 1.24185 41.5438C1.28009 41.2613 1.36632 40.9897 1.49051 40.7346L2.59623 38.4638C2.65468 38.3438 2.70437 38.22 2.74702 38.0932C3.11666 36.9939 3.85538 35.0516 4.06486 34.0299C4.46541 32.0762 5.47842 30.8836 6.82655 29.7761C8.17469 28.6687 10.9691 28.3582 10.9691 28.3582H14.4597C14.8884 28.3582 15.3113 28.4607 15.6948 28.6576L17.4725 29.5703C17.738 29.7066 17.9803 29.886 18.1902 30.1015L20.635 32.6119M13.4276 43.9552C13.4276 43.9552 12.7372 42.5373 10.6659 42.5373C9.69379 42.5373 8.59467 41.1194 8.59467 41.1194M16.1893 65.2239V48.209M16.1893 48.209V36.8657M16.1893 48.209H13.4276" stroke="white" stroke-width="2"/>
<path d="M123.927 5.57211H127.557V27.2625C127.557 29.1984 127.205 30.843 126.503 32.1961C125.8 33.5493 124.81 34.5766 123.532 35.2778C122.253 35.9791 120.746 36.3298 119.009 36.3298C117.37 36.3298 115.911 36.0285 114.633 35.426C113.354 34.8136 112.349 33.9444 111.617 32.8184C110.886 31.6924 110.52 30.354 110.52 28.8033H114.091C114.091 29.6626 114.301 30.4133 114.72 31.0553C115.15 31.6875 115.735 32.1813 116.477 32.5369C117.218 32.8925 118.062 33.0703 119.009 33.0703C120.053 33.0703 120.941 32.848 121.673 32.4036C122.405 31.9591 122.961 31.3072 123.341 30.4479C123.732 29.5787 123.927 28.5169 123.927 27.2625V5.57211Z" fill="white"/>
<path d="M143.789 36.389C141.623 36.389 139.754 35.905 138.183 34.9371C136.622 33.9592 135.417 32.5962 134.568 30.8479C133.728 29.0898 133.309 27.0452 133.309 24.7142C133.309 22.3831 133.728 20.3287 134.568 18.5508C135.417 16.763 136.597 15.3703 138.11 14.3727C139.632 13.3652 141.408 12.8615 143.437 12.8615C144.608 12.8615 145.765 13.059 146.906 13.4541C148.048 13.8492 149.087 14.4912 150.024 15.3802C150.961 16.2593 151.707 17.4248 152.263 18.8767C152.82 20.3287 153.098 22.1164 153.098 24.24V25.7216H135.768V22.6992H149.585C149.585 21.4152 149.331 20.2694 148.824 19.2619C148.326 18.2545 147.614 17.4593 146.687 16.8766C145.77 16.2938 144.686 16.0025 143.437 16.0025C142.062 16.0025 140.871 16.3482 139.866 17.0396C138.871 17.7211 138.105 18.61 137.568 19.7064C137.031 20.8028 136.763 21.9782 136.763 23.2326V25.2475C136.763 26.9662 137.056 28.4231 137.641 29.6182C138.237 30.8035 139.061 31.7072 140.115 32.3295C141.169 32.9419 142.393 33.2481 143.789 33.2481C144.696 33.2481 145.516 33.1197 146.248 32.8629C146.989 32.5962 147.628 32.2011 148.165 31.6776C148.702 31.1442 149.116 30.4825 149.409 29.6923L152.746 30.6405C152.395 31.7862 151.805 32.7937 150.975 33.6629C150.146 34.5222 149.121 35.1939 147.902 35.6779C146.682 36.152 145.311 36.389 143.789 36.389Z" fill="white"/>
<path d="M161.806 22.2251V35.9149H158.352V13.1578H161.689V16.7136H161.982C162.509 15.558 163.309 14.6295 164.382 13.9282C165.456 13.2171 166.841 12.8615 168.539 12.8615C170.062 12.8615 171.393 13.1776 172.535 13.8097C173.677 14.432 174.565 15.3802 175.199 16.6543C175.833 17.9186 176.15 19.5187 176.15 21.4547V35.9149H172.696V21.6917C172.696 19.904 172.238 18.5113 171.32 17.5137C170.403 16.5062 169.144 16.0025 167.544 16.0025C166.441 16.0025 165.456 16.2444 164.587 16.7284C163.729 17.2124 163.051 17.9186 162.553 18.8471C162.055 19.7755 161.806 20.9016 161.806 22.2251Z" fill="white"/>
<path d="M182.462 35.9149V13.1578H185.917V35.9149H182.462ZM184.219 9.36497C183.546 9.36497 182.965 9.13285 182.477 8.66862C181.999 8.20439 181.76 7.64633 181.76 6.99443C181.76 6.34254 181.999 5.78447 182.477 5.32024C182.965 4.85602 183.546 4.6239 184.219 4.6239C184.892 4.6239 185.468 4.85602 185.946 5.32024C186.434 5.78447 186.678 6.34254 186.678 6.99443C186.678 7.64633 186.434 8.20439 185.946 8.66862C185.468 9.13285 184.892 9.36497 184.219 9.36497Z" fill="white"/>
<path d="M208.168 18.2545L205.065 19.1434C204.87 18.6199 204.582 18.1112 204.201 17.6174C203.831 17.1136 203.323 16.6988 202.679 16.3728C202.035 16.0469 201.211 15.8839 200.206 15.8839C198.83 15.8839 197.683 16.2049 196.766 16.847C195.859 17.4791 195.405 18.2841 195.405 19.2619C195.405 20.1311 195.717 20.8176 196.342 21.3213C196.966 21.8251 197.942 22.2449 199.269 22.5807L202.606 23.4104C204.616 23.9042 206.114 24.6598 207.1 25.6772C208.085 26.6847 208.578 27.9835 208.578 29.5737C208.578 30.8775 208.207 32.0431 207.465 33.0703C206.734 34.0975 205.709 34.9074 204.392 35.5001C203.074 36.0927 201.543 36.389 199.796 36.389C197.503 36.389 195.605 35.8853 194.102 34.8778C192.6 33.8703 191.648 32.3986 191.248 30.4627L194.527 29.633C194.839 30.8578 195.429 31.7764 196.298 32.3888C197.176 33.0011 198.322 33.3073 199.737 33.3073C201.347 33.3073 202.626 32.9616 203.572 32.2702C204.528 31.5689 205.007 30.7294 205.007 29.7515C205.007 28.9614 204.733 28.2996 204.187 27.7662C203.64 27.223 202.801 26.818 201.669 26.5513L197.922 25.6624C195.863 25.1685 194.351 24.403 193.385 23.3659C192.429 22.3189 191.951 21.0102 191.951 19.4397C191.951 18.1557 192.307 17.0198 193.019 16.0321C193.741 15.0444 194.722 14.269 195.961 13.706C197.21 13.143 198.625 12.8615 200.206 12.8615C202.43 12.8615 204.177 13.3554 205.446 14.3431C206.724 15.3308 207.631 16.6346 208.168 18.2545Z" fill="white"/>
<path d="M229.702 18.2545L226.599 19.1434C226.404 18.6199 226.116 18.1112 225.736 17.6174C225.365 17.1136 224.857 16.6988 224.213 16.3728C223.569 16.0469 222.745 15.8839 221.74 15.8839C220.364 15.8839 219.217 16.2049 218.3 16.847C217.393 17.4791 216.939 18.2841 216.939 19.2619C216.939 20.1311 217.251 20.8176 217.876 21.3213C218.5 21.8251 219.476 22.2449 220.803 22.5807L224.14 23.4104C226.15 23.9042 227.648 24.6598 228.634 25.6772C229.619 26.6847 230.112 27.9835 230.112 29.5737C230.112 30.8775 229.741 32.0431 229 33.0703C228.268 34.0975 227.243 34.9074 225.926 35.5001C224.609 36.0927 223.077 36.389 221.33 36.389C219.037 36.389 217.139 35.8853 215.636 34.8778C214.134 33.8703 213.182 32.3986 212.782 30.4627L216.061 29.633C216.373 30.8578 216.963 31.7764 217.832 32.3888C218.71 33.0011 219.857 33.3073 221.271 33.3073C222.882 33.3073 224.16 32.9616 225.106 32.2702C226.063 31.5689 226.541 30.7294 226.541 29.7515C226.541 28.9614 226.267 28.2996 225.721 27.7662C225.175 27.223 224.335 26.818 223.204 26.5513L219.457 25.6624C217.398 25.1685 215.885 24.403 214.919 23.3659C213.963 22.3189 213.485 21.0102 213.485 19.4397C213.485 18.1557 213.841 17.0198 214.553 16.0321C215.275 15.0444 216.256 14.269 217.495 13.706C218.744 13.143 220.159 12.8615 221.74 12.8615C223.965 12.8615 225.711 13.3554 226.98 14.3431C228.258 15.3308 229.166 16.6346 229.702 18.2545Z" fill="white"/>
<path d="M244.445 36.389C242.415 36.389 240.635 35.9001 239.103 34.9223C237.58 33.9444 236.39 32.5764 235.531 30.8183C234.682 29.0601 234.258 27.0057 234.258 24.6549C234.258 22.2844 234.682 20.2151 235.531 18.4471C236.39 16.679 237.58 15.3061 239.103 14.3283C240.635 13.3504 242.415 12.8615 244.445 12.8615C246.475 12.8615 248.25 13.3504 249.773 14.3283C251.305 15.3061 252.495 16.679 253.344 18.4471C254.203 20.2151 254.632 22.2844 254.632 24.6549C254.632 27.0057 254.203 29.0601 253.344 30.8183C252.495 32.5764 251.305 33.9444 249.773 34.9223C248.25 35.9001 246.475 36.389 244.445 36.389ZM244.445 33.2481C245.987 33.2481 247.255 32.848 248.25 32.048C249.246 31.2479 249.982 30.196 250.461 28.8922C250.939 27.5884 251.178 26.176 251.178 24.6549C251.178 23.1338 250.939 21.7164 250.461 20.4028C249.982 19.0891 249.246 18.0273 248.25 17.2173C247.255 16.4074 245.987 16.0025 244.445 16.0025C242.903 16.0025 241.635 16.4074 240.639 17.2173C239.644 18.0273 238.907 19.0891 238.429 20.4028C237.951 21.7164 237.712 23.1338 237.712 24.6549C237.712 26.176 237.951 27.5884 238.429 28.8922C238.907 30.196 239.644 31.2479 240.639 32.048C241.635 32.848 242.903 33.2481 244.445 33.2481Z" fill="white"/>
<path d="M263.359 22.2251V35.9149H259.905V13.1578H263.242V16.7136H263.535C264.062 15.558 264.862 14.6295 265.935 13.9282C267.009 13.2171 268.394 12.8615 270.092 12.8615C271.614 12.8615 272.946 13.1776 274.088 13.8097C275.229 14.432 276.117 15.3802 276.752 16.6543C277.386 17.9186 277.703 19.5187 277.703 21.4547V35.9149H274.249V21.6917C274.249 19.904 273.79 18.5113 272.873 17.5137C271.956 16.5062 270.697 16.0025 269.097 16.0025C267.994 16.0025 267.009 16.2444 266.14 16.7284C265.281 17.2124 264.603 17.9186 264.106 18.8471C263.608 19.7755 263.359 20.9016 263.359 22.2251Z" fill="white"/>
<path d="M112.469 72.0734V41.7306H116.099V68.8139H130.033V72.0734H112.469Z" fill="white"/>
<path d="M149.353 62.7691V49.3163H152.808V72.0734H149.353V68.2213H149.119C148.592 69.3769 147.773 70.3597 146.66 71.1697C145.548 71.9697 144.143 72.3697 142.445 72.3697C141.04 72.3697 139.791 72.0586 138.698 71.4363C137.605 70.8042 136.746 69.856 136.122 68.5917C135.497 67.3175 135.185 65.7125 135.185 63.7766V49.3163H138.639V63.5395C138.639 65.1989 139.098 66.5224 140.015 67.5102C140.942 68.4979 142.123 68.9917 143.557 68.9917C144.416 68.9917 145.289 68.7695 146.177 68.325C147.075 67.8806 147.826 67.199 148.431 66.2804C149.046 65.3619 149.353 64.1914 149.353 62.7691Z" fill="white"/>
<path d="M168.268 72.5475C166.16 72.5475 164.345 72.0438 162.823 71.0363C161.301 70.0288 160.13 68.6411 159.31 66.8731C158.49 65.1051 158.081 63.0852 158.081 60.8134C158.081 58.5021 158.5 56.4625 159.339 54.6945C160.188 52.9166 161.369 51.5288 162.881 50.5312C164.404 49.5237 166.18 49.02 168.209 49.02C169.79 49.02 171.215 49.3163 172.483 49.909C173.752 50.5016 174.791 51.3313 175.601 52.398C176.411 53.4648 176.913 54.7093 177.108 56.1316H173.654C173.391 55.0945 172.805 54.1759 171.898 53.3759C171 52.5659 169.79 52.161 168.268 52.161C166.921 52.161 165.74 52.5165 164.726 53.2277C163.721 53.929 162.935 54.9216 162.369 56.2057C161.813 57.4798 161.535 58.9762 161.535 60.6949C161.535 62.453 161.808 63.984 162.354 65.2878C162.911 66.5916 163.691 67.604 164.696 68.325C165.711 69.0461 166.902 69.4066 168.268 69.4066C169.165 69.4066 169.98 69.2485 170.712 68.9325C171.444 68.6164 172.063 68.1621 172.571 67.5694C173.078 66.9768 173.439 66.2656 173.654 65.4359H177.108C176.913 66.7792 176.43 67.9892 175.659 69.0658C174.898 70.1326 173.888 70.982 172.629 71.6141C171.38 72.2364 169.927 72.5475 168.268 72.5475Z" fill="white"/>
<path d="M185.378 63.7766L185.319 59.4503H186.022L195.858 49.3163H200.132L189.652 60.043H189.359L185.378 63.7766ZM182.158 72.0734V41.7306H185.612V72.0734H182.158ZM196.443 72.0734L187.661 60.8134L190.12 58.3836L200.834 72.0734H196.443Z" fill="white"/>
<path d="M209.671 72.0734L202.821 49.3163H206.451L211.31 66.7397H211.545L216.345 49.3163H220.034L224.776 66.6805H225.01L229.87 49.3163H233.5L226.65 72.0734H223.254L218.336 54.5908H217.985L213.067 72.0734H209.671Z" fill="white"/>
<path d="M252.234 62.7691V49.3163H255.689V72.0734H252.234V68.2213H252C251.473 69.3769 250.654 70.3597 249.541 71.1697C248.429 71.9697 247.024 72.3697 245.326 72.3697C243.921 72.3697 242.672 72.0586 241.579 71.4363C240.486 70.8042 239.627 69.856 239.003 68.5917C238.378 67.3175 238.066 65.7125 238.066 63.7766V49.3163H241.52V63.5395C241.52 65.1989 241.979 66.5224 242.896 67.5102C243.823 68.4979 245.004 68.9917 246.438 68.9917C247.297 68.9917 248.17 68.7695 249.058 68.325C249.956 67.8806 250.707 67.199 251.312 66.2804C251.927 65.3619 252.234 64.1914 252.234 62.7691ZM242.691 45.5235C242.077 45.5235 241.53 45.2864 241.052 44.8123C240.584 44.3283 240.349 43.7752 240.349 43.1529C240.349 42.4714 240.584 41.9084 241.052 41.4639C241.53 41.0096 242.077 40.7824 242.691 40.7824C243.365 40.7824 243.921 41.0096 244.36 41.4639C244.809 41.9084 245.033 42.4714 245.033 43.1529C245.033 43.7752 244.809 44.3283 244.36 44.8123C243.921 45.2864 243.365 45.5235 242.691 45.5235ZM251.122 45.5235C250.507 45.5235 249.961 45.2864 249.483 44.8123C249.014 44.3283 248.78 43.7752 248.78 43.1529C248.78 42.4714 249.014 41.9084 249.483 41.4639C249.961 41.0096 250.507 40.7824 251.122 40.7824C251.795 40.7824 252.352 41.0096 252.791 41.4639C253.239 41.9084 253.464 42.4714 253.464 43.1529C253.464 43.7752 253.239 44.3283 252.791 44.8123C252.352 45.2864 251.795 45.5235 251.122 45.5235Z" fill="white"/>
</svg>
